<svg width="60" height="60" viewBox="0 0 60 60" fill="none" xmlns="http://www.w3.org/2000/svg">
<path d="M52.8802 19.599C52.9321 17.2446 51.4162 14.8275 49.7064 12.8596C49.5861 12.7223 49.4641 12.5867 49.3438 12.4528C48.8658 11.9273 48.3794 11.4392 47.9165 11.0019C46.3855 9.55262 45.097 8.63223 45.097 8.63223C36.4446 2.1217 28.3003 2.17424 23.2864 3.19125C23.1426 3.22176 23.0006 3.25057 22.8619 3.28108C22.6529 3.32854 22.4507 3.376 22.2552 3.42346C22.19 3.44041 22.1248 3.45736 22.0613 3.47262C21.9961 3.48957 21.9326 3.50652 21.8708 3.52347C21.3075 3.67263 20.7995 3.82857 20.3566 3.97943C20.2646 4.01163 20.1761 4.04214 20.0892 4.07265C20.0357 4.0913 19.9839 4.10994 19.9321 4.12859C19.8535 4.1574 19.7783 4.18622 19.7048 4.21334C19.6646 4.22859 19.6245 4.24385 19.5861 4.2591C19.5744 4.26249 19.5644 4.26588 19.5527 4.27097C19.4892 4.2947 19.429 4.31843 19.3705 4.34216C19.317 4.3625 19.2652 4.38284 19.2167 4.40318C19.1816 4.41844 19.1482 4.432 19.1148 4.44556C19.063 4.46759 19.0145 4.48793 18.9677 4.50827C18.849 4.55743 18.7454 4.60489 18.6535 4.64557C18.468 4.73032 18.3376 4.79473 18.2658 4.83032C18.249 4.8388 18.234 4.84727 18.224 4.85236C18.224 4.85236 18.2206 4.85405 18.219 4.85575C18.2089 4.85914 18.2039 4.86253 18.2006 4.86422C18.1989 4.86592 18.1972 4.86592 18.1972 4.86592C7.14821 9.8323 3.88414 20.7024 3.88414 20.7024C3.36269 22.4059 2.88971 24.0856 2.58219 25.8366C2.5521 26.018 2.52369 26.1993 2.49695 26.3807C1.89695 30.4148 2.26798 34.3218 3.44626 38.0373C3.67522 38.7678 3.93762 39.4899 4.2301 40.2035C4.18999 40.0306 4.14319 39.8255 4.14319 39.8255C4.14319 39.8255 3.15043 34.9778 4.073 30.3233C4.073 30.3233 4.8769 25.4773 8.14263 21.733C8.14263 21.733 13.4407 14.08 23.3064 17.0785C23.3064 17.0785 25.4357 17.8463 26.1694 18.2311C26.9031 18.5904 28.18 19.143 28.18 19.143C35.1593 22.5737 41.0741 23.6534 41.0741 23.6534C53.5905 25.7891 52.8802 19.599 52.8802 19.599ZM29.5989 10.1544L20.8931 7.40843C20.8463 7.40843 20.6106 7.28978 20.1844 7.40843C20.1844 7.40843 15.4295 8.63223 16.2568 11.2731C16.2568 11.2731 16.7532 12.9274 18.102 14.536L27.6919 14.1546L27.5749 14.4004C27.468 14.6224 27.2507 14.7682 27.0067 14.78L18.1337 15.2123C18.1237 15.214 18.112 15.214 18.102 15.214C17.9064 15.214 17.7209 15.1258 17.5922 14.975C16.1716 13.28 15.6385 11.5426 15.6167 11.4697C15.3978 10.773 15.468 10.0594 15.819 9.41872C16.8017 7.6254 19.6931 6.83552 20.019 6.75247C20.1894 6.70331 20.3716 6.67789 20.5471 6.67789C20.771 6.67789 20.9315 6.72026 21.0134 6.7423C21.0401 6.74738 21.0669 6.75416 21.0919 6.76094L29.1593 9.30515C29.3465 9.36448 29.497 9.50177 29.5755 9.68314C29.639 9.8323 29.6474 10.0001 29.5989 10.1544ZM38.3298 13.5749C38.3215 14.2766 37.7599 14.8444 37.063 14.8478H37.0529C36.3527 14.8495 35.7844 14.2817 35.7744 13.5749V13.5512C35.7727 12.8392 36.3393 12.2596 37.0429 12.2562H37.0529C37.7549 12.2528 38.3265 12.8274 38.3298 13.541V13.5749Z" fill="white"/>
<path d="M2.43177 36.9441C1.86352 36.2644 1.33372 35.5525 0.87912 34.7863C0.523131 34.1388 0.145415 33.4422 0.0267522 32.6998C-0.0919107 31.9557 0.192212 31.2353 0.618396 30.6353C0.925917 30.1793 1.3053 29.82 1.49416 29.2674C1.52257 29.1911 1.54764 29.1148 1.56937 29.0369C1.45405 31.6946 1.74152 34.3372 2.43177 36.9441Z" fill="white"/>
<path d="M3.45795 38.0491C3.45795 38.0491 3.4496 38.0423 3.44626 38.0372C2.26798 34.3217 1.89695 30.4147 2.49695 26.3806C1.90364 30.4114 2.28135 34.3302 3.45795 38.0491Z" fill="white"/>
<path d="M18.6534 4.6456C18.7454 4.60492 18.849 4.55746 18.9676 4.5083C18.8507 4.55746 18.7454 4.60492 18.6534 4.6456Z" fill="white"/>
<path d="M27.0352 2.04032C21.7488 2.29966 18.2508 4.07434 17.9065 4.2557C12.0636 6.88636 8.39339 11.1527 6.34102 14.2698C4.11484 17.6531 3.27918 20.3905 3.24576 20.5007C2.75105 22.116 2.24966 23.8653 1.92375 25.7213C1.82515 26.301 1.74659 26.879 1.6881 27.457C1.44409 24.9687 -0.635021 22.4177 0.737124 19.9583C1.2101 19.143 1.84854 18.3751 2.60565 17.7988C4.40398 16.3835 5.20788 15.6631 5.32654 13.1206C5.37334 12.2562 5.34994 11.368 5.4452 10.5052C5.54047 9.40006 5.89478 8.44069 6.77055 7.722C7.57445 7.07281 8.59228 6.71347 9.58503 6.54566C10.5544 6.37786 11.502 6.44905 12.448 6.08971C13.536 5.68121 14.482 4.96252 15.2625 4.09807C15.9494 3.33023 16.5644 2.4912 17.2981 1.72336C19.7349 -0.844584 23.7561 -0.24455 26.4536 1.57928C26.6274 1.69624 26.8363 1.86743 27.0352 2.04032Z" fill="white"/>
<path d="M1.688 27.457C1.63117 27.9842 1.59273 28.5113 1.56934 29.0368C1.69636 28.6046 1.72644 28.1571 1.70638 27.7079C1.70304 27.6248 1.69636 27.5401 1.688 27.457Z" fill="white"/>
<path d="M59.3381 41.8646C59.3381 41.8646 57.4696 49.3515 48.1721 55.8298C48.1721 55.8298 38.0707 63.315 23.283 58.2283C23.283 58.2283 13.2986 55.0128 7.14814 45.7038C6.85734 45.2631 6.57823 44.8173 6.31082 44.3681C6.21723 44.0054 6.07182 43.6562 5.92308 43.3138C4.23004 39.4153 3.90581 34.6083 4.72809 30.4572C4.72976 30.4504 4.73143 30.4436 4.73143 30.4352C4.73979 30.3894 5.54035 25.74 8.64397 22.1821C8.65901 22.1635 8.67572 22.1432 8.68909 22.1228C8.72419 22.0737 12.2958 17.0598 18.8289 17.0598C20.2094 17.0598 21.6451 17.2836 23.0991 17.7226C23.6924 17.9378 25.2986 18.5379 25.8618 18.8328C25.8685 18.8362 25.8735 18.8396 25.8785 18.8413C26.2679 19.0328 26.7977 19.2718 27.2206 19.46C24.8824 20.1668 19.205 22.4567 17.0139 28.4283C14.2228 36.0338 18.0785 42.7036 18.0785 42.7036C18.0785 42.7036 20.7041 47.9107 26.43 50.3109C26.43 50.3109 21.864 46.1835 21.9827 41.7443L22.0061 41.768C22.1715 42.0087 23.0239 42.9206 23.0239 42.9206C23.9699 43.9529 24.986 44.9122 26.0506 45.8004C31.7064 50.5736 38.5905 53.0466 45.9242 51.294C45.9242 51.294 40.3169 51.6533 36.5799 47.4073C36.5799 47.4073 45.4679 47.8395 53.6757 38.8492C53.4534 39.0509 49.3186 42.7223 43.7481 41.6731C43.7481 41.6731 48.8824 38.9136 52.5025 31.1877C52.5025 31.1877 56.8078 22.6449 53.5671 15.6394C53.5671 15.6394 61.4924 23.0771 53.5203 35.3846C53.6105 35.3236 56.527 33.3065 59.7175 26.2688C59.7175 26.2688 61.444 33.6828 56.3582 40.7137C56.3582 40.7137 54.0401 44.8648 48.5983 47.2632C48.5983 47.2632 51.839 47.8158 59.3381 41.8646Z" fill="white"/>
</svg>
